<svg xmlns="http://www.w3.org/2000/svg" version="1.1" xmlns:xlink="http://www.w3.org/1999/xlink" xmlns:svgjs="http://svgjs.dev/svgjs" width="1500" height="939" viewBox="0 0 1500 939"><g transform="matrix(1,0,0,1,-0.9090909090909918,-1.5145161290322449)"><svg viewBox="0 0 396 248" data-background-color="#ffffff" preserveAspectRatio="xMidYMid meet" height="939" width="1500" xmlns="http://www.w3.org/2000/svg" xmlns:xlink="http://www.w3.org/1999/xlink"><g id="tight-bounds" transform="matrix(1,0,0,1,0.2400000000000091,0.4000000000000057)"><svg viewBox="0 0 395.52 247.2" height="247.2" width="395.52"><g><svg></svg></g><g><svg viewBox="0 0 395.52 247.2" height="247.2" width="395.52"><mask id="a46eaa0c-9a81-40fa-b6c3-30366c1547df"><rect width="395.52" height="247.2" fill="white"></rect><g transform="matrix(1,0,0,1,67.74679245283019,37.08)" id="clone"><svg viewBox="0 0 260.0264150943396 173.04" height="173.04" width="260.0264150943396"><g><svg viewBox="0 0 260.0264150943396 173.04" height="173.04" width="260.0264150943396"><g><svg viewBox="0 0 260.0264150943396 173.04" height="173.04" width="260.0264150943396"><g><svg viewBox="0 0 260.0264150943396 173.04" height="173.04" width="260.0264150943396"><g id="SvgjsG3803"><svg viewBox="0 0 260.0264150943396 173.04" height="173.04" width="260.0264150943396" id="SvgjsSvg3802"><g><svg viewBox="0 0 260.0264150943396 173.04" height="173.04" width="260.0264150943396"><g transform="matrix(1,0,0,1,0,0)"><svg width="260.0264150943396" viewBox="-3.5 -34.35 56.75 38.1" height="173.04" data-palette-color="#556970"><path d="M28-29.3L26.5-28.95 16.05-1.3 17.6-0.95 17.55 0 9.7 0 9.65-0.95 11.2-1.3 1-28.95-0.5-29.3-0.45-30.25 8.75-30.25 8.8-29.2 6.6-28.95 7.8-22.3 14.05-4.2 20.25-22.3 21.4-28.95 19.2-29.2 19.25-30.25 27.95-30.25 28-29.3ZM32.2-7.35L33.1-7.1 32.85-4.8Q36.75-2.55 39.8-2.55 42.85-2.55 44.6-3.8 46.35-5.05 46.35-7.08 46.35-9.1 45.2-10.53 44.05-11.95 42.3-12.7 40.55-13.45 38.52-14.38 36.5-15.3 34.75-16.18 33-17.05 31.85-18.75 30.7-20.45 30.7-22.8L30.7-22.8Q30.7-26.45 33.72-28.73 36.75-31 41.55-31L41.55-31Q44.5-31 47.6-30.05L47.6-30.05 47.95-31.35 48.9-31.35 48.5-22.9 47.55-22.9 47.2-25.05Q42.95-27.85 39.75-27.85L39.75-27.85Q37.55-27.85 36.35-26.88 35.15-25.9 35.15-23.95 35.15-22 36.7-20.6 38.25-19.2 40.47-18.35 42.7-17.5 44.92-16.53 47.15-15.55 48.7-13.63 50.25-11.7 50.25-8.8L50.25-8.8Q50.25-4.4 47-1.83 43.75 0.75 38.3 0.75L38.3 0.75Q35.1 0.75 31.1-0.4L31.1-0.4 30.4 0.7 29.5 0.4 32.2-7.35Z" opacity="1" transform="matrix(1,0,0,1,0,0)" fill="black" class="wordmark-text-0" id="SvgjsPath3801" stroke-width="5" stroke="black" stroke-linejoin="round"></path></svg></g></svg></g></svg></g></svg></g></svg></g></svg></g></svg></g></mask><g mask="url(#a46eaa0c-9a81-40fa-b6c3-30366c1547df)"><g><path d="M314.21 7.763l-12.258 2.86-85.397 225.954 12.667 2.86-0.409 7.763h-64.149l-0.409-7.763 12.667-2.86-83.354-225.954-12.258-2.86 0.409-7.763h75.182l0.408 8.581-17.978 2.042 9.806 54.344 51.075 147.911 50.665-147.911 9.398-54.344-17.978-2.042 0.408-8.581h71.096z" fill="#556970" fill-rule="nonzero" stroke="none" stroke-width="1" stroke-linecap="butt" stroke-linejoin="miter" stroke-miterlimit="10" stroke-dasharray="" stroke-dashoffset="0" font-family="none" font-weight="none" font-size="none" text-anchor="none" style="mix-blend-mode: normal" data-fill-palette-color="tertiary"></path></g></g><g transform="matrix(1,0,0,1,67.74679245283019,37.08)"><svg viewBox="0 0 260.0264150943396 173.04" height="173.04" width="260.0264150943396"><g><svg viewBox="0 0 260.0264150943396 173.04" height="173.04" width="260.0264150943396"><g><svg viewBox="0 0 260.0264150943396 173.04" height="173.04" width="260.0264150943396"><g><svg viewBox="0 0 260.0264150943396 173.04" height="173.04" width="260.0264150943396"><g id="textblocktransform"><svg viewBox="0 0 260.0264150943396 173.04" height="173.04" width="260.0264150943396" id="textblock"><g><svg viewBox="0 0 260.0264150943396 173.04" height="173.04" width="260.0264150943396"><g transform="matrix(1,0,0,1,0,0)"><svg width="260.0264150943396" viewBox="-3.5 -34.35 56.75 38.1" height="173.04" data-palette-color="#556970"><path d="M28-29.3L26.5-28.95 16.05-1.3 17.6-0.95 17.55 0 9.7 0 9.65-0.95 11.2-1.3 1-28.95-0.5-29.3-0.45-30.25 8.75-30.25 8.8-29.2 6.6-28.95 7.8-22.3 14.05-4.2 20.25-22.3 21.4-28.95 19.2-29.2 19.25-30.25 27.95-30.25 28-29.3ZM32.2-7.35L33.1-7.1 32.85-4.8Q36.75-2.55 39.8-2.55 42.85-2.55 44.6-3.8 46.35-5.05 46.35-7.08 46.35-9.1 45.2-10.53 44.05-11.95 42.3-12.7 40.55-13.45 38.52-14.38 36.5-15.3 34.75-16.18 33-17.05 31.85-18.75 30.7-20.45 30.7-22.8L30.7-22.8Q30.7-26.45 33.72-28.73 36.75-31 41.55-31L41.55-31Q44.5-31 47.6-30.05L47.6-30.05 47.95-31.35 48.9-31.35 48.5-22.9 47.55-22.9 47.2-25.05Q42.95-27.85 39.75-27.85L39.75-27.85Q37.55-27.85 36.35-26.88 35.15-25.9 35.15-23.95 35.15-22 36.7-20.6 38.25-19.2 40.47-18.35 42.7-17.5 44.92-16.53 47.15-15.55 48.7-13.63 50.25-11.7 50.25-8.8L50.25-8.8Q50.25-4.4 47-1.83 43.75 0.75 38.3 0.75L38.3 0.75Q35.1 0.75 31.1-0.4L31.1-0.4 30.4 0.7 29.5 0.4 32.2-7.35Z" opacity="1" transform="matrix(1,0,0,1,0,0)" fill="#556970" class="wordmark-text-0" data-fill-palette-color="primary" id="text-0"></path></svg></g></svg></g></svg></g></svg></g></svg></g></svg></g></svg></g></svg></g><defs></defs></svg><rect width="395.52" height="247.2" fill="none" stroke="none" visibility="hidden"></rect></g></svg></g></svg>